<?xml version="1.0" encoding="UTF-8"?>
<svg width="512px" height="512px" viewBox="0 0 512 512" version="1.1" xmlns="http://www.w3.org/2000/svg" xmlns:xlink="http://www.w3.org/1999/xlink">
    <title>al_yxjl</title>
    <defs>
        <path d="M250.847491,498 C381.932493,498 496.167463,405.21557 496.167463,270.567263 C496.167463,135.918955 366.836936,9.26667349 236.800149,15.2005993 C106.763362,21.134525 16,129.777174 16,264.425482 C16,399.073789 119.762488,498 250.847491,498 Z" id="path-1"></path>
        <filter x="-4.2%" y="-2.5%" width="107.5%" height="107.5%" filterUnits="objectBoundingBox" id="filter-2">
            <feOffset dx="-2" dy="6" in="SourceAlpha" result="shadowOffsetOuter1"></feOffset>
            <feGaussianBlur stdDeviation="5" in="shadowOffsetOuter1" result="shadowBlurOuter1"></feGaussianBlur>
            <feColorMatrix values="0 0 0 0 0   0 0 0 0 0   0 0 0 0 0  0 0 0 0.351726399 0" type="matrix" in="shadowBlurOuter1"></feColorMatrix>
        </filter>
        <filter x="-3.1%" y="-1.4%" width="105.4%" height="105.4%" filterUnits="objectBoundingBox" id="filter-3">
            <feGaussianBlur stdDeviation="1" in="SourceAlpha" result="shadowBlurInner1"></feGaussianBlur>
            <feOffset dx="1" dy="-4" in="shadowBlurInner1" result="shadowOffsetInner1"></feOffset>
            <feComposite in="shadowOffsetInner1" in2="SourceAlpha" operator="arithmetic" k2="-1" k3="1" result="shadowInnerInner1"></feComposite>
            <feColorMatrix values="0 0 0 0 0.470537994   0 0 0 0 0.698582304   0 0 0 0 0.403745596  0 0 0 0.547093531 0" type="matrix" in="shadowInnerInner1"></feColorMatrix>
        </filter>
        <linearGradient x1="61.6697423%" y1="7.08522369%" x2="45.5002567%" y2="97.4170346%" id="linearGradient-4">
            <stop stop-color="#93D117" offset="0%"></stop>
            <stop stop-color="#5BBB31" offset="100%"></stop>
        </linearGradient>
        <linearGradient x1="97.5813098%" y1="50%" x2="7.20620862%" y2="47.672621%" id="linearGradient-5">
            <stop stop-color="#FFFFFF" stop-opacity="0.20036604" offset="0%"></stop>
            <stop stop-color="#FFF8B7" offset="50.3605769%"></stop>
            <stop stop-color="#FFFFFF" stop-opacity="0.198508523" offset="100%"></stop>
        </linearGradient>
        <linearGradient x1="4.06461877%" y1="46.0911322%" x2="95.2173455%" y2="53.4644845%" id="linearGradient-6">
            <stop stop-color="#000000" stop-opacity="0.199819712" offset="0%"></stop>
            <stop stop-color="#000000" offset="49.4635898%"></stop>
            <stop stop-color="#000000" stop-opacity="0.103010271" offset="100%"></stop>
        </linearGradient>
        <filter x="-4.0%" y="-5.2%" width="108.0%" height="110.4%" filterUnits="objectBoundingBox" id="filter-7">
            <feGaussianBlur stdDeviation="1" in="SourceGraphic"></feGaussianBlur>
        </filter>
        <filter x="-26.7%" y="-37.9%" width="153.3%" height="175.8%" filterUnits="objectBoundingBox" id="filter-8">
            <feGaussianBlur stdDeviation="2" in="SourceGraphic"></feGaussianBlur>
        </filter>
    </defs>
    <g id="al_yxjl" stroke="none" stroke-width="1" fill="none" fill-rule="evenodd">
        <g id="Group">
            <g id="Oval-Copy-2">
                <use fill="black" fill-opacity="1" filter="url(#filter-2)" xlink:href="#path-1"></use>
                <use fill="#558A39" fill-rule="evenodd" xlink:href="#path-1"></use>
                <use fill="black" fill-opacity="1" filter="url(#filter-3)" xlink:href="#path-1"></use>
            </g>
            <path d="M255.099758,480 C379.587079,480 483,396.260401 483,268.497851 C483,140.735301 360.178849,20.5598691 236.686986,26.1903409 C113.195122,31.8208126 27,134.907603 27,262.670153 C27,390.432703 130.612437,480 255.099758,480 Z" id="Oval-Copy" fill="url(#linearGradient-4)"></path>
            <path d="M236.686986,26.1901658 C360.178849,20.5648721 483,140.629786 483,268.274841 C483,275.666533 482.65322,282.910737 481.975648,289.999746 C479.461801,163.844674 357.908249,46.3163699 235.697832,51.8832913 C119.932831,57.1566114 36.9432881,147.993383 27.0112249,264.492806 L27,262.452503 C27,134.807448 113.195122,31.8154595 236.686986,26.1901658 Z" id="Combined-Shape" fill="url(#linearGradient-5)" opacity="0.298575535"></path>
            <path d="M34.9252941,213.241358 C34.9252941,340.991197 138.555928,430.549583 263.065112,430.549583 C368.47323,430.549583 458.774397,370.538285 483.999994,274.611826 C480.76774,398.924437 378.658562,480 256.139818,480 C131.630634,480 28,390.441614 28,262.691775 C28,240.963007 30.4940689,219.948039 35.2415517,200.004965 C35.0296035,204.383854 34.9252941,208.797679 34.9252941,213.241358 Z" id="Combined-Shape" fill="url(#linearGradient-6)" opacity="0.152389172"></path>
            <path d="M364.798048,100.068373 C382.782962,113.878044 402.980748,127.916019 405.987441,122.491799 C408.994135,117.06758 394.134031,94.9967178 374.748246,81.3203046 C355.362461,67.6438915 336.059463,61.4933091 332.259673,70.501732 C328.459883,79.5101548 346.813134,86.2587022 364.798048,100.068373 Z" id="Oval" fill="#FFFFFF" opacity="0.903138626" filter="url(#filter-7)"></path>
            <path d="M133.826182,399.044861 C139.832538,402.105252 145.991738,402.05425 147.583142,398.930945 C149.174545,395.80764 145.595519,390.794764 139.589163,387.734373 C133.582808,384.673982 127.423607,384.724984 125.832203,387.848289 C124.2408,390.971594 127.819826,395.98447 133.826182,399.044861 Z" id="Oval" fill="#FFFFFF" opacity="0.699286882" filter="url(#filter-8)"></path>
        </g>
        <g id="Group" transform="translate(97.898960, 140.695481)" fill="#FFFFFF">
            <path d="M80.864482,53.2428693 C89.701038,53.2428693 96.864482,60.4063133 96.864482,69.2428693 C96.864482,69.4696914 96.8596587,69.6964878 96.8500154,69.9231048 L92.2117175,178.923105 C91.8472821,187.487337 84.7981667,194.242869 76.2261841,194.242869 L16,194.242869 C7.163444,194.242869 -1.09023901e-13,187.079425 -1.10134124e-13,178.242869 C-1.10134124e-13,177.64581 0.0334200182,177.049218 0.100103236,176.455893 L12.3505208,67.4558934 C13.2602114,59.3617796 20.1053445,53.2428693 28.2504176,53.2428693 L80.864482,53.2428693 Z M52.7070401,72.1845187 C49.1070401,72.1845187 45.7230401,72.9405187 42.5550401,74.4525187 C40.7434296,75.317151 38.3844066,77.073536 35.4779711,79.7216736 C34.6614865,80.4655988 34.6026635,81.7305606 35.3465873,82.5470464 C35.3553194,82.5566302 35.3641445,82.566129 35.3730614,82.5755412 L40.3040118,87.7804333 C41.0636689,88.582313 42.3295451,88.6165259 43.1314156,87.856859 C43.1564352,87.8331562 43.180838,87.8088107 43.2045995,87.7838468 C43.3072843,87.6759655 43.4027646,87.5761895 43.4910401,87.4845187 C44.1150401,86.8365187 44.7990401,86.2485187 45.5430401,85.7205187 C46.2870401,85.1925187 47.0790401,84.7485187 47.9190401,84.3885187 C48.7590401,84.0285187 49.6590401,83.8485187 50.6190401,83.8485187 C52.2990401,83.8485187 53.7270401,84.1845187 54.9030401,84.8565187 C56.0790401,85.5285187 56.6670401,86.7765187 56.6670401,88.6005187 C56.6670401,89.7045187 56.2470401,90.7485187 55.4070401,91.7325187 C54.5670401,92.7165187 53.5110401,93.6765187 52.2390401,94.6125187 C50.9670401,95.5485187 49.5870401,96.4965187 48.0990401,97.4565187 C46.6110401,98.4165187 45.2190401,99.4725187 43.9230401,100.624519 C42.7710401,101.536519 41.7630401,102.388519 40.8990401,103.180519 C40.0350401,103.972519 39.2070401,104.812519 38.4150401,105.700519 C37.6230401,106.588519 36.8430401,107.596519 36.0750401,108.724519 C35.6057852,109.413737 34.8206916,110.630473 33.7197591,112.374727 C33.5180774,112.694252 33.4110401,113.064375 33.4110401,113.442226 L33.4110401,121.304519 C33.4110401,122.409088 34.3064706,123.304519 35.4110401,123.304519 L70.2910401,123.304519 C71.3956096,123.304519 72.2910401,122.409088 72.2910401,121.304519 L72.2910401,109.968519 C72.2910401,108.863949 71.3956096,107.968519 70.2910401,107.968519 L62.1950401,107.968519 C61.0904706,107.968519 60.1950401,108.863949 60.1950401,109.968519 L60.1950401,111.728519 C60.1950401,112.833088 59.2996096,113.728519 58.1950401,113.728519 L47.5230401,113.728519 C47.9550401,113.008519 48.5910401,112.204519 49.4310401,111.316519 C50.2710401,110.428519 51.2070401,109.540519 52.2390401,108.652519 C53.2710401,107.764519 54.3270401,106.924519 55.4070401,106.132519 C56.4870401,105.340519 57.4590401,104.656519 58.3230401,104.080519 C60.2430401,102.832519 61.9230401,101.680519 63.3630401,100.624519 C64.8030401,99.5685187 66.0030401,98.4525187 66.9630401,97.2765187 C67.9230401,96.1005187 68.6430401,94.7685187 69.1230401,93.2805187 C69.6030401,91.7925187 69.8430401,90.0165187 69.8430401,87.9525187 C69.8430401,85.5045187 69.3990401,83.3085187 68.5110401,81.3645187 C67.6230401,79.4205187 66.4110401,77.7645187 64.8750401,76.3965187 C63.3390401,75.0285187 61.5270401,73.9845187 59.4390401,73.2645187 C57.3510401,72.5445187 55.1070401,72.1845187 52.7070401,72.1845187 Z" id="Combined-Shape"></path>
            <path d="M291.516298,78.5112804 C299.441778,78.5112804 306.17292,84.3134051 307.341439,92.1522689 L319.823084,175.883858 C321.12593,184.623841 315.096939,192.765164 306.356955,194.06801 C305.576009,194.184423 304.787518,194.242869 303.997943,194.242869 L244.11002,194.242869 C235.670123,194.242869 228.681584,187.687192 228.142671,179.264519 L222.785218,95.5329297 C222.220977,86.7144063 228.912394,79.1081727 237.730918,78.5439314 C238.071033,78.5221696 238.411756,78.5112804 238.752567,78.5112804 L291.516298,78.5112804 Z M266.48304,95.1845187 C264.85104,95.1845187 263.25504,95.4125187 261.69504,95.8685187 C260.13504,96.3245187 258.67104,96.8885187 257.30304,97.5605187 C255.93504,98.2325187 254.71104,98.9645187 253.63104,99.7565187 C253.280278,100.013744 252.898189,100.325081 252.484771,100.690531 C251.675651,101.405752 251.580448,102.634134 252.269694,103.465492 L256.745078,108.863637 C257.450069,109.713951 258.710891,109.831785 259.561219,109.126812 C259.563348,109.125047 259.565474,109.123277 259.567596,109.121503 C260.612326,108.248021 261.477474,107.634359 262.16304,107.280519 C263.65104,106.512519 265.09104,106.128519 266.48304,106.128519 C267.25104,106.128519 268.00704,106.248519 268.75104,106.488519 C269.49504,106.728519 270.16704,107.076519 270.76704,107.532519 C271.36704,107.988519 271.85904,108.576519 272.24304,109.296519 C272.62704,110.016519 272.81904,110.856519 272.81904,111.816519 C272.81904,113.448519 272.23104,114.684519 271.05504,115.524519 C269.87904,116.364519 268.42704,116.784519 266.69904,116.784519 L263.44304,116.784519 C262.338471,116.784519 261.44304,117.679949 261.44304,118.784519 L261.44304,123.352519 C261.44304,124.457088 262.338471,125.352519 263.44304,125.352519 L266.84304,125.352519 C268.66704,125.352519 270.11904,125.736519 271.19904,126.504519 C272.27904,127.272519 272.81904,128.640519 272.81904,130.608519 C272.81904,132.432519 272.24304,133.812519 271.09104,134.748519 C269.93904,135.684519 268.35504,136.152519 266.33904,136.152519 C264.27504,136.152519 262.51104,135.708519 261.04704,134.820519 C259.58304,133.932519 258.17904,132.816519 256.83504,131.472519 L250.739549,137.807049 C250.014715,138.560275 249.99222,139.744636 250.687911,140.524859 C251.29998,141.211298 251.849023,141.757851 252.33504,142.164519 C253.51104,143.148519 254.85504,144.012519 256.36704,144.756519 C257.87904,145.500519 259.47504,146.100519 261.15504,146.556519 C262.83504,147.012519 264.53904,147.240519 266.26704,147.240519 C268.71504,147.240519 271.12704,146.916519 273.50304,146.268519 C275.87904,145.620519 278.00304,144.636519 279.87504,143.316519 C281.74704,141.996519 283.27104,140.352519 284.44704,138.384519 C285.62304,136.416519 286.21104,134.088519 286.21104,131.400519 C286.21104,129.768519 285.97104,128.316519 285.49104,127.044519 C285.01104,125.772519 284.42304,124.656519 283.72704,123.696519 C283.03104,122.736519 282.29904,121.920519 281.53104,121.248519 C280.76304,120.576519 280.09104,120.024519 279.51504,119.592519 C279.99504,119.256519 280.53504,118.812519 281.13504,118.260519 C281.73504,117.708519 282.31104,117.060519 282.86304,116.316519 C283.41504,115.572519 283.88304,114.720519 284.26704,113.760519 C284.65104,112.800519 284.84304,111.696519 284.84304,110.448519 C284.84304,108.144519 284.43504,106.056519 283.61904,104.184519 C282.80304,102.312519 281.61504,100.704519 280.05504,99.3605187 C278.49504,98.0165187 276.57504,96.9845187 274.29504,96.2645187 C272.01504,95.5445187 269.41104,95.1845187 266.48304,95.1845187 Z" id="Combined-Shape"></path>
            <path d="M185.886753,0 C194.446333,-1.57236925e-15 201.489858,6.73665724 201.870892,15.2877516 L209.100386,177.530621 C209.49375,186.358417 202.656291,193.833644 193.828495,194.227008 C193.591226,194.237581 193.353751,194.242869 193.116247,194.242869 L126.879957,194.242869 C118.043401,194.242869 110.879957,187.079425 110.879957,178.242869 C110.879957,178.042209 110.883732,177.841566 110.89128,177.641048 L116.998178,15.3981786 C117.321746,6.80188598 124.384475,1.93438e-14 132.986855,0 L185.886753,0 Z M166.21104,20.9765187 L156.301971,20.9765187 C155.727949,20.9765375 155.181599,21.2231812 154.801935,21.6537122 C153.442787,23.1949589 152.440489,24.2532277 151.79504,24.8285187 C150.69104,25.8125187 149.64704,26.6285187 148.66304,27.2765187 C147.67904,27.9245187 146.70704,28.4885187 145.74704,28.9685187 C145.418297,29.1328903 144.99879,29.3394774 144.48852,29.5882802 C143.538098,30.0516888 143.112612,31.174834 143.517421,32.1516555 L145.304906,36.4649335 C145.727781,37.4853502 146.8978,37.9697532 147.918217,37.5468778 C147.946851,37.5350116 147.975205,37.5224814 148.003256,37.5092973 L150.456318,36.3563582 C151.455979,35.8865173 152.647247,36.3160217 153.117088,37.3156833 C153.242182,37.5818426 153.30704,37.8723147 153.30704,38.1664056 L153.30704,61.7285187 L148.10704,61.7285187 C147.002471,61.7285187 146.10704,62.6239492 146.10704,63.7285187 L146.10704,69.3045187 C146.10704,70.4090882 147.002471,71.3045187 148.10704,71.3045187 L172.90704,71.3045187 C174.01161,71.3045187 174.90704,70.4090882 174.90704,69.3045187 L174.90704,63.7285187 C174.90704,62.6239492 174.01161,61.7285187 172.90704,61.7285187 L168.21104,61.7285187 L168.21104,22.9765187 C168.21104,21.8719492 167.31561,20.9765187 166.21104,20.9765187 Z" id="Combined-Shape"></path>
        </g>
    </g>
</svg>