<?xml version="1.0" encoding="UTF-8"?>
<svg width="512px" height="512px" viewBox="0 0 512 512" version="1.1" xmlns="http://www.w3.org/2000/svg" xmlns:xlink="http://www.w3.org/1999/xlink">
    <title>al_qb</title>
    <defs>
        <path d="M250.847491,498 C381.932493,498 496.167463,405.21557 496.167463,270.567263 C496.167463,135.918955 366.836936,9.26667349 236.800149,15.2005993 C106.763362,21.134525 16,129.777174 16,264.425482 C16,399.073789 119.762488,498 250.847491,498 Z" id="path-1"></path>
        <filter x="-4.2%" y="-2.5%" width="107.5%" height="107.5%" filterUnits="objectBoundingBox" id="filter-2">
            <feOffset dx="-2" dy="6" in="SourceAlpha" result="shadowOffsetOuter1"></feOffset>
            <feGaussianBlur stdDeviation="5" in="shadowOffsetOuter1" result="shadowBlurOuter1"></feGaussianBlur>
            <feColorMatrix values="0 0 0 0 0   0 0 0 0 0   0 0 0 0 0  0 0 0 0.351726399 0" type="matrix" in="shadowBlurOuter1"></feColorMatrix>
        </filter>
        <filter x="-3.1%" y="-1.4%" width="105.4%" height="105.4%" filterUnits="objectBoundingBox" id="filter-3">
            <feGaussianBlur stdDeviation="1" in="SourceAlpha" result="shadowBlurInner1"></feGaussianBlur>
            <feOffset dx="1" dy="-4" in="shadowBlurInner1" result="shadowOffsetInner1"></feOffset>
            <feComposite in="shadowOffsetInner1" in2="SourceAlpha" operator="arithmetic" k2="-1" k3="1" result="shadowInnerInner1"></feComposite>
            <feColorMatrix values="0 0 0 0 0.470537994   0 0 0 0 0.698582304   0 0 0 0 0.403745596  0 0 0 0.547093531 0" type="matrix" in="shadowInnerInner1"></feColorMatrix>
        </filter>
        <linearGradient x1="61.6697423%" y1="7.08522369%" x2="45.5002567%" y2="97.4170346%" id="linearGradient-4">
            <stop stop-color="#93D117" offset="0%"></stop>
            <stop stop-color="#5BBB31" offset="100%"></stop>
        </linearGradient>
        <linearGradient x1="97.5813098%" y1="50%" x2="7.20620862%" y2="47.672621%" id="linearGradient-5">
            <stop stop-color="#FFFFFF" stop-opacity="0.20036604" offset="0%"></stop>
            <stop stop-color="#FFF8B7" offset="50.3605769%"></stop>
            <stop stop-color="#FFFFFF" stop-opacity="0.198508523" offset="100%"></stop>
        </linearGradient>
        <linearGradient x1="4.06461877%" y1="46.0911322%" x2="95.2173455%" y2="53.4644845%" id="linearGradient-6">
            <stop stop-color="#000000" stop-opacity="0.199819712" offset="0%"></stop>
            <stop stop-color="#000000" offset="49.4635898%"></stop>
            <stop stop-color="#000000" stop-opacity="0.103010271" offset="100%"></stop>
        </linearGradient>
        <filter x="-4.0%" y="-5.2%" width="108.0%" height="110.4%" filterUnits="objectBoundingBox" id="filter-7">
            <feGaussianBlur stdDeviation="1" in="SourceGraphic"></feGaussianBlur>
        </filter>
        <filter x="-26.7%" y="-37.9%" width="153.3%" height="175.8%" filterUnits="objectBoundingBox" id="filter-8">
            <feGaussianBlur stdDeviation="2" in="SourceGraphic"></feGaussianBlur>
        </filter>
    </defs>
    <g id="al_qb" stroke="none" stroke-width="1" fill="none" fill-rule="evenodd">
        <g id="Group">
            <g id="Oval-Copy-2">
                <use fill="black" fill-opacity="1" filter="url(#filter-2)" xlink:href="#path-1"></use>
                <use fill="#558A39" fill-rule="evenodd" xlink:href="#path-1"></use>
                <use fill="black" fill-opacity="1" filter="url(#filter-3)" xlink:href="#path-1"></use>
            </g>
            <path d="M255.099758,480 C379.587079,480 483,396.260401 483,268.497851 C483,140.735301 360.178849,20.5598691 236.686986,26.1903409 C113.195122,31.8208126 27,134.907603 27,262.670153 C27,390.432703 130.612437,480 255.099758,480 Z" id="Oval-Copy" fill="url(#linearGradient-4)"></path>
            <path d="M236.686986,26.1901658 C360.178849,20.5648721 483,140.629786 483,268.274841 C483,275.666533 482.65322,282.910737 481.975648,289.999746 C479.461801,163.844674 357.908249,46.3163699 235.697832,51.8832913 C119.932831,57.1566114 36.9432881,147.993383 27.0112249,264.492806 L27,262.452503 C27,134.807448 113.195122,31.8154595 236.686986,26.1901658 Z" id="Combined-Shape" fill="url(#linearGradient-5)" opacity="0.298575535"></path>
            <path d="M34.9252941,213.241358 C34.9252941,340.991197 138.555928,430.549583 263.065112,430.549583 C368.47323,430.549583 458.774397,370.538285 483.999994,274.611826 C480.76774,398.924437 378.658562,480 256.139818,480 C131.630634,480 28,390.441614 28,262.691775 C28,240.963007 30.4940689,219.948039 35.2415517,200.004965 C35.0296035,204.383854 34.9252941,208.797679 34.9252941,213.241358 Z" id="Combined-Shape" fill="url(#linearGradient-6)" opacity="0.152389172"></path>
            <path d="M364.798048,100.068373 C382.782962,113.878044 402.980748,127.916019 405.987441,122.491799 C408.994135,117.06758 394.134031,94.9967178 374.748246,81.3203046 C355.362461,67.6438915 336.059463,61.4933091 332.259673,70.501732 C328.459883,79.5101548 346.813134,86.2587022 364.798048,100.068373 Z" id="Oval" fill="#FFFFFF" opacity="0.903138626" filter="url(#filter-7)"></path>
            <path d="M133.826182,399.044861 C139.832538,402.105252 145.991738,402.05425 147.583142,398.930945 C149.174545,395.80764 145.595519,390.794764 139.589163,387.734373 C133.582808,384.673982 127.423607,384.724984 125.832203,387.848289 C124.2408,390.971594 127.819826,395.98447 133.826182,399.044861 Z" id="Oval" fill="#FFFFFF" opacity="0.699286882" filter="url(#filter-8)"></path>
        </g>
        <path d="M199.107898,121.604078 L207.237393,147.853987 C207.756084,149.528824 209.305035,150.670652 211.058351,150.670652 L298.506731,150.670652 C300.246971,150.670652 301.787532,149.545504 302.317058,147.887783 L310.70206,121.637875 C311.374264,119.533489 310.213251,117.282619 308.108865,116.610416 C307.715382,116.484726 307.304804,116.420743 306.891733,116.420743 L299.141319,116.420743 L299.141319,116.420743 L292.560329,125.071778 L274.385914,125.071778 L269.536296,116.420743 L238.003213,116.420743 L234.535197,125.071778 L217.937987,125.071778 L212.114466,116.420743 L202.928856,116.420743 C200.719717,116.420743 198.928856,118.211604 198.928856,120.420743 C198.928856,120.821935 198.989212,121.220844 199.107898,121.604078 Z" id="Path-7" fill="#FFFFFF"></path>
        <path d="M302.174511,162.474525 C304.38365,162.474525 306.174511,164.265386 306.174511,166.474525 C306.174511,166.899459 306.1068,167.321679 305.973925,167.725304 L300.609904,184.019268 C318.434243,199.948554 330.803909,212.678255 337.718902,222.208369 C348.091391,236.503542 365.0794,267.21688 365.0794,293.512917 C365.0794,319.808953 349.603524,367.582569 256,367.582569 C162.396476,367.582569 146.067725,326.684171 146.067725,293.512917 C146.067725,260.341663 164.78742,236.725889 174.98736,222.208369 C181.78732,212.530023 193.223653,199.800323 209.296358,184.019268 L204.037428,167.701509 C203.359784,165.598869 204.514971,163.345004 206.617611,162.667359 C207.01407,162.539588 207.428054,162.474525 207.844594,162.474525 L302.174511,162.474525 Z M256,209 C222.034488,209 194.5,236.534488 194.5,270.5 C194.5,304.465512 222.034488,332 256,332 C289.965512,332 317.5,304.465512 317.5,270.5 C317.5,236.534488 289.965512,209 256,209 Z" id="Combined-Shape" fill="#FFFFFF"></path>
        <path d="M255,224 C257.75,224 260,226.25 260,229 L260,239 C260,241.75 257.75,244 255,244 C252.25,244 250,241.75 250,239 L250,229 C250,226.25 252.25,224 255,224 Z M255,294 C257.75,294 260,296.25 260,299 L260,314 C260,316.75 257.75,319 255,319 C252.25,319 250,316.75 250,314 L250,299 C250,296.25 252.25,294 255,294 Z" id="Shape" fill="#FFFFFF" fill-rule="nonzero"></path>
        <path d="M266.997923,251.589503 C266.043038,250.825232 265.178034,250.267327 264.402913,249.915789 C262.174757,248.905263 259.946602,248.4 257.966019,248.4 C256.975728,248.4 255.737864,248.4 254.747573,248.652632 C253.757282,248.905263 252.76699,249.157895 251.776699,249.663158 C250.786408,250.168421 250.043689,250.926316 249.548544,251.684211 C249.053398,252.442105 248.558252,253.705263 248.558252,254.968421 C248.558252,256.231579 248.805825,256.989474 249.300971,257.747368 C249.796117,258.505263 250.538835,259.263158 251.281553,259.768421 C252.271845,260.273684 253.262136,260.778947 254.5,261.284211 C255.737864,261.789474 257.223301,262.294737 258.708738,262.8 C260.936893,263.557895 263.412621,264.315789 265.88835,265.326316 C268.364078,266.336842 270.592233,267.6 272.572816,269.115789 C274.553398,270.631579 276.286408,272.652632 277.524272,274.926316 C278.762136,277.2 279.504854,279.978947 279.504854,283.515789 C279.504854,287.305263 278.762136,290.842105 277.276699,293.621053 C275.791262,296.4 274.058252,298.926316 271.582524,300.694737 C269.106796,302.463158 266.383495,303.978947 263.412621,304.736842 C260.441748,305.747368 257.223301,306 254.004854,306 C249.300971,306 244.597087,305.242105 240.140777,303.473684 C238.007408,302.627089 235.49105,301.129133 232.591702,298.979818 C230.817007,297.66423 230.444836,295.159059 231.760432,293.384368 C231.86955,293.237172 231.988653,293.097647 232.1169,292.966779 L236.910371,288.075361 C238.377171,286.578575 240.750556,286.467652 242.350572,287.821098 C243.719879,288.979388 244.963863,289.81797 246.082524,290.336842 C248.805825,291.6 251.281553,292.357895 254.004854,292.357895 C255.242718,292.357895 256.23301,292.105263 257.470874,291.852632 C258.708738,291.6 259.699029,291.094737 260.441748,290.589474 C261.184466,290.084211 261.927184,289.326316 262.42233,288.315789 C262.917476,287.305263 263.165049,286.294737 263.165049,284.778947 C263.165049,283.515789 262.917476,282.505263 262.174757,281.494737 C261.432039,280.484211 260.68932,279.726316 259.451456,278.968421 C258.213592,278.210526 256.728155,277.452632 255.242718,276.947368 L249.300971,274.926316 C247.072816,274.168421 245.092233,273.410526 243.11165,272.4 C241.131068,271.389474 239.150485,270.126316 237.665049,268.610526 C236.179612,267.094737 234.694175,265.326316 233.703883,263.052632 C232.713592,261.031579 232.218447,258.252632 232.218447,255.221053 C232.218447,251.431579 232.961165,248.147368 234.446602,245.621053 C235.932039,243.094737 237.912621,240.821053 240.38835,239.052632 C242.864078,237.284211 245.587379,236.021053 248.558252,235.263158 C251.529126,234.505263 254.747573,234 257.966019,234 C261.679612,234 265.640777,234.757895 269.601942,236.021053 C271.446056,236.726726 273.692603,237.966252 276.341583,239.739632 C278.177323,240.96859 278.669225,243.453017 277.440272,245.288761 C277.353179,245.418856 277.258524,245.543725 277.156794,245.662725 L272.537861,251.065793 C271.135091,252.7067 268.683336,252.938474 266.997923,251.589503 Z" id="Path" fill="#FFFFFF" fill-rule="nonzero"></path>
    </g>
</svg>