<svg xmlns="http://www.w3.org/2000/svg" viewBox="10 0 511 133"><defs><style>.b696e9a6-9768-4340-a36a-f528d0bd032f{fill:#516d98;}.eb1a7dbb-de48-41c2-81f7-5c78c433acd9{fill:#888;}.ee260912-e306-4195-a47a-18429aa95bfe{fill:none;}</style></defs><g id="ab14f20f-ac0d-4871-8aea-07df28dc7519" data-name="圖層 2"><g id="a66a9951-aff5-4b6a-ae02-3c5531e9c908" data-name="圖層 2"><path class="b696e9a6-9768-4340-a36a-f528d0bd032f" d="M181.51,33.57c0,13.57-5.41,17.11-9.66,19.72,6.74,5.19,10.41,8.84,10.41,24.65,0,9.85-7.64,20.87-25.5,20.87H135.81a1,1,0,0,1-1-1V11.38A1.16,1.16,0,0,1,136,10.21h19.87C173,10.21,181.51,20,181.51,33.57ZM149.29,23V47.91h5c5.16,0,13.27-.56,13.27-13,0-9.43-7.11-11.87-12-11.87Zm0,35.44V86.24h7.47c5.31,0,11.67-3.78,11.67-12.51,0-12.6-7.15-15.27-13.43-15.27Z"/><path class="b696e9a6-9768-4340-a36a-f528d0bd032f" d="M226.37,52.24H248.1a1.3,1.3,0,0,1,1.3,1.3V79.69c0,13.22-12,20.13-24.55,20.13-13.58,0-22.79-8-22.79-22.13V31.94c0-14.08,9.1-22.12,22.67-22.12s24.67,7.75,24.67,20.45v7.55a1,1,0,0,1-1,1H236.16a1,1,0,0,1-1-1V32.68c0-6.28-5-10.89-9.44-10.89a10,10,0,0,0-9.84,9.89V78.57c0,6.29,4.89,9.11,9.29,9.11a10.14,10.14,0,0,0,9.67-10.22V64.36H226.4a1.31,1.31,0,0,1-1.3-1.31V53.52A1.27,1.27,0,0,1,226.37,52.24Z"/><path class="b696e9a6-9768-4340-a36a-f528d0bd032f" d="M292.13,9.82c13.45,0,23.38,7.47,23.38,24.71v1.26a1.5,1.5,0,0,1-1.5,1.5H302.38a1,1,0,0,1-1-1V33.65c0-7.36-4.55-11.61-8.95-11.61s-9.12,3.39-9.12,9.67c0,3.17,1.32,5.75,3.08,8.25,6.26,8.89,21.92,14.86,27.33,25.5A25.8,25.8,0,0,1,316,76.63c0,14.08-9.71,23.19-23.29,23.19s-22.79-8-22.79-22.13V73.75a1.46,1.46,0,0,1,1.46-1.46h10.87a1.42,1.42,0,0,1,1.42,1.42v3.42c0,6.28,4.64,10.16,9,10.16s9-2.43,9-8.72a18.6,18.6,0,0,0-1-6.61c-5.82-13.16-31.25-16.34-31.25-40C269.43,17.86,278.68,9.82,292.13,9.82Z"/><path class="b696e9a6-9768-4340-a36a-f528d0bd032f" d="M335.86,33.79c0-14.07,8.54-24,24.16-24s24.16,9.9,24.16,24v42c0,14.08-8.54,24-24.16,24s-24.16-9.95-24.16-24Zm14.42,43.34c0,6.28,3.76,10.11,9.74,10.11s9.74-3.83,9.74-10.11V32.54c0-6.28-3.76-10.15-9.74-10.15s-9.74,3.87-9.74,10.15Z"/><path class="b696e9a6-9768-4340-a36a-f528d0bd032f" d="M421.26,48.54H438a1.34,1.34,0,0,1,1.33,1.34v9.75A1.34,1.34,0,0,1,438,61h-16.7V97.88a1.33,1.33,0,0,1-1.33,1.33H408.1a1.34,1.34,0,0,1-1.34-1.33V11.71a1.33,1.33,0,0,1,1.34-1.33h41.25a1.33,1.33,0,0,1,1.33,1.33v9.83a1.34,1.34,0,0,1-1.33,1.34H421.26Z"/><path class="b696e9a6-9768-4340-a36a-f528d0bd032f" d="M467.39,10.38h47.5a1.29,1.29,0,0,1,1.29,1.29V21.84a1.29,1.29,0,0,1-1.29,1.29h-17V97.92a1.29,1.29,0,0,1-1.29,1.29h-12a1.29,1.29,0,0,1-1.29-1.29V23.13h-16a1.29,1.29,0,0,1-1.29-1.29V11.67A1.29,1.29,0,0,1,467.39,10.38Z"/><path class="eb1a7dbb-de48-41c2-81f7-5c78c433acd9" d="M133.82,106.38h4.52c1.89,0,3,.05,4.15.7a3.37,3.37,0,0,1,1.85,3.06,3.49,3.49,0,0,1-2.54,3.29v.06a3.86,3.86,0,0,1,3.08,3.8,4.09,4.09,0,0,1-1.61,3.29c-1.14.91-3.23,1.3-5.66,1.3h-3.79Zm3,6.1h1.34c1.86,0,2.85-.77,2.85-1.92s-1-1.8-2.61-1.8a8.54,8.54,0,0,0-1.58.11Zm0,6.86a13.27,13.27,0,0,0,1.55.06c1.59,0,3.28-.62,3.28-2.25S139.94,115,138.2,115h-1.41Z"/><path class="eb1a7dbb-de48-41c2-81f7-5c78c433acd9" d="M147.73,106.34h3.5v12.55H157v2.94h-9.28Z"/><path class="eb1a7dbb-de48-41c2-81f7-5c78c433acd9" d="M435.84,106.34h3.51v12.55h5.5v2.94h-9Z"/><path class="eb1a7dbb-de48-41c2-81f7-5c78c433acd9" d="M173.45,113.93c0,5.08-3.07,8.15-7.6,8.15s-7.3-3.47-7.3-7.89c0-4.63,3-8.11,7.55-8.11C170.85,106.08,173.45,109.64,173.45,113.93Zm-11.52.19c0,3,1.56,5.18,4.1,5.18s4-2.24,4-5.25c0-2.8-1.44-5.18-4-5.18S161.93,111.11,161.93,114.12Z"/><path class="eb1a7dbb-de48-41c2-81f7-5c78c433acd9" d="M372.75,113.93c0,5.08-3.07,8.15-7.6,8.15s-7.29-3.47-7.29-7.89c0-4.63,3-8.11,7.54-8.11C370.15,106.08,372.75,109.64,372.75,113.93Zm-11.51.19c0,3,1.55,5.18,4.09,5.18s4-2.24,4-5.25c0-2.8-1.43-5.18-4.05-5.18S361.24,111.11,361.24,114.12Z"/><path class="eb1a7dbb-de48-41c2-81f7-5c78c433acd9" d="M433.14,113.93c0,5.08-3.07,8.15-7.6,8.15s-7.3-3.47-7.3-7.89c0-4.63,3-8.11,7.55-8.11C430.54,106.08,433.14,109.64,433.14,113.93Zm-11.51.19c0,3,1.55,5.18,4.09,5.18s4-2.24,4-5.25c0-2.8-1.44-5.18-4.05-5.18S421.63,111.11,421.63,114.12Z"/><path class="eb1a7dbb-de48-41c2-81f7-5c78c433acd9" d="M497.38,113.93c0,5.08-3.07,8.15-7.6,8.15s-7.3-3.47-7.3-7.89c0-4.63,3-8.11,7.54-8.11C494.78,106.08,497.38,109.64,497.38,113.93Zm-11.52.19c0,3,1.56,5.18,4.09,5.18s4.05-2.24,4.05-5.25c0-2.8-1.44-5.18-4.06-5.18S485.86,111.11,485.86,114.12Z"/><path class="eb1a7dbb-de48-41c2-81f7-5c78c433acd9" d="M187.19,121.4a8.87,8.87,0,0,1-3.75.67c-5.36,0-8.13-3.35-8.13-7.77,0-5.28,3.79-8.21,8.46-8.21a6.88,6.88,0,0,1,3.42.69v2.77a9.29,9.29,0,0,0-3.26-.58,5.1,5.1,0,1,0,0,10.19,10.07,10.07,0,0,0,3.24-.78Z"/><path class="eb1a7dbb-de48-41c2-81f7-5c78c433acd9" d="M215.52,121.4a8.87,8.87,0,0,1-3.75.67c-5.36,0-8.13-3.35-8.13-7.77,0-5.28,3.79-8.21,8.47-8.21a6.86,6.86,0,0,1,3.41.69v2.77a9.25,9.25,0,0,0-3.26-.58,5.1,5.1,0,1,0,0,10.19,10,10,0,0,0,3.24-.78Z"/><path class="eb1a7dbb-de48-41c2-81f7-5c78c433acd9" d="M190.1,106.34l3.13-.06v7.35l5.23-7.35h3.71l-5.62,7.22,5.89,8.27h-4.08l-3.81-6.68-1.32-.13v6.81l-3.13.06Z"/><path class="eb1a7dbb-de48-41c2-81f7-5c78c433acd9" d="M221.9,106.34v6h6.31v-6h3.51v15.49h-3.51v-6.48H221.9v6.48h-3.5V106.34Z"/><path class="eb1a7dbb-de48-41c2-81f7-5c78c433acd9" d="M238.89,117.85l-1.09,4h-3.63l4.73-15.49h4.59l4.82,15.49h-3.77l-1.19-4Zm3.94-2.61-1-3.29c-.27-.92-.54-2.08-.78-3H241c-.22.92-.46,2.09-.71,3l-.92,3.29Z"/><path class="eb1a7dbb-de48-41c2-81f7-5c78c433acd9" d="M301.33,117.85l-1.09,4h-3.63l4.73-15.49h4.59l4.82,15.49H307l-1.2-4Zm3.94-2.61-1-3.29c-.27-.92-.54-2.08-.78-3h0c-.22.92-.46,2.09-.71,3l-.92,3.29Z"/><path class="eb1a7dbb-de48-41c2-81f7-5c78c433acd9" d="M254.41,106.34v15.49h-3.5V106.34Z"/><path class="eb1a7dbb-de48-41c2-81f7-5c78c433acd9" d="M258,121.83V106.34h3.75l6.84,11v-11h3v15.49H268l-6.89-11v11Z"/><path class="eb1a7dbb-de48-41c2-81f7-5c78c433acd9" d="M479.85,106.34v15.49h-3.51V106.34Z"/><path class="eb1a7dbb-de48-41c2-81f7-5c78c433acd9" d="M500.22,121.83V106.34H504l6.83,11v-11h3v15.49h-3.56l-6.88-11v11Z"/><path class="eb1a7dbb-de48-41c2-81f7-5c78c433acd9" d="M294.37,121.11a17,17,0,0,1-5.17.88c-2.84,0-4.88-.71-6.3-2.08a7.59,7.59,0,0,1-2.19-5.64c0-5.16,3.77-8.09,8.84-8.09a8.89,8.89,0,0,1,3.94.74v2.81a10.54,10.54,0,0,0-4-.66c-2.92,0-5.14,1.65-5.14,5,0,3.2,2,5.07,4.89,5.07a4.92,4.92,0,0,0,1.71-.22v-2.81h-2.86v-2.74h6.25Z"/><path class="eb1a7dbb-de48-41c2-81f7-5c78c433acd9" d="M327.29,110.35l-4.22,11.23h-2.72L316,110.35v11.48h-3V106.34h5.08l3.86,11.22,3.86-11.22h4.71v15.49h-3.21Z"/><path class="eb1a7dbb-de48-41c2-81f7-5c78c433acd9" d="M342.68,115.28h-5V119h5.81v2.87H334.2V106.34h8.92v2.86H337.7v3.23h5Z"/><path class="eb1a7dbb-de48-41c2-81f7-5c78c433acd9" d="M345.68,118.3a18,18,0,0,0,5,1.08c1.61,0,2.08-.65,2.08-1.67s-1.27-1.89-3.12-2.54c-2.59-.92-4-2.16-4-4.43,0-2.64,2.37-4.65,6-4.65a7.43,7.43,0,0,1,3.57.78v2.81a9.65,9.65,0,0,0-3.62-.73c-1.52,0-2.52.76-2.54,1.55-.05,1.38,1.32,1.66,3.33,2.42,2.74,1,3.67,2.71,3.67,4.67,0,2.58-1.55,4.48-5.32,4.48a17.23,17.23,0,0,1-5.1-.88Z"/><path class="eb1a7dbb-de48-41c2-81f7-5c78c433acd9" d="M405.65,118.3a18,18,0,0,0,5,1.08c1.61,0,2.09-.65,2.09-1.67s-1.27-1.89-3.13-2.54c-2.58-.92-4-2.16-4-4.43,0-2.64,2.37-4.65,6-4.65a7.49,7.49,0,0,1,3.57.78v2.81a9.75,9.75,0,0,0-3.62-.73c-1.53,0-2.53.76-2.55,1.55,0,1.38,1.32,1.66,3.33,2.42,2.75,1,3.67,2.71,3.67,4.67,0,2.58-1.54,4.48-5.31,4.48a17.3,17.3,0,0,1-5.11-.88Z"/><path class="eb1a7dbb-de48-41c2-81f7-5c78c433acd9" d="M375.51,106.34h8.86v2.86h-5.65v3.56H384v2.84h-5.27v6.23h-3.21Z"/><path class="eb1a7dbb-de48-41c2-81f7-5c78c433acd9" d="M390,109.28h-4.18v-2.94h11.92v2.94h-4.24v12.55H390Z"/><path class="eb1a7dbb-de48-41c2-81f7-5c78c433acd9" d="M466,109.28h-4.18v-2.94h11.93v2.94h-4.24v12.55H466Z"/><path class="eb1a7dbb-de48-41c2-81f7-5c78c433acd9" d="M450.52,106.34v9.33c0,2.68,1,3.83,2.81,3.83s2.85-1.09,2.85-3.83v-9.33h3.5V115c0,4.78-2.41,7-6.47,7-3.91,0-6.19-2.17-6.19-7.09v-8.65Z"/><g id="a6fdeb2c-6130-4766-9016-4dc684784273" data-name="a72a056b-6444-430b-80bf-31cb036b7399"><g id="b8968136-5c71-404d-b585-d2d26e622e08" data-name="aa34a8c1-1dc8-4739-b35a-72b47b90ebc5"><path class="b696e9a6-9768-4340-a36a-f528d0bd032f" d="M113.35,59.08h0v-.24h0l-8.87-39.56a.7.7,0,0,0-.11-.23v0a.12.12,0,0,0-.05-.05.47.47,0,0,0-.1-.1h0L81,4.64a1.06,1.06,0,0,0-.25-.09h-.36a.75.75,0,0,0-.24.15l-14.58,14H40.53a.69.69,0,0,0-.6.34l-31,54.2h0v.06h0v0H8.82v.18h0L16.69,114a.69.69,0,0,0,.33.45h0l23.16,13.94h0a.73.73,0,0,0,.28.1h.07a.73.73,0,0,0,.53-.24L53.13,114.5l27.14-.17h.17l.1,0h.07l.09-.06.06,0,.11-.15,32.4-54.7h0a.11.11,0,0,1,0-.08V59.2ZM63.22,103.19l46.64-40.86L80,112.7ZM80.51,6.34l7.38,12.4H67.6Zm22.82,14.18,7.72,34.34L93.82,26ZM93.11,24.79l-2.78-4.65h10.85Zm18.44,33.62L96.66,60.5,13,72.4,92.62,26.66Zm-22-39.67L82.69,7.32l18.65,11.44Zm-.78,1.39,3.18,5.33L14.08,70.18,66.16,20.13ZM11.63,74l49.6-7,49.23-7L61.94,102.46ZM60.94,103.5l-8.44,9.62L33,113.24,11.38,75.45Zm-20-83.37H64.15L12.52,69.74ZM11,77.58l20.42,35.66L18,113.33Zm21.21,37.05,6.41,11.19L19.87,114.71Zm8.44,12-6.83-12,17.46-.11Zm21.53-22.37L77.64,113l-23.29.13Z"/></g></g></g></g></svg>
