<?xml version="1.0" standalone="no"?><!DOCTYPE svg PUBLIC "-//W3C//DTD SVG 1.1//EN" "http://www.w3.org/Graphics/SVG/1.1/DTD/svg11.dtd"><svg t="1633088640331" class="icon" viewBox="0 0 1024 1024" version="1.1" xmlns="http://www.w3.org/2000/svg" p-id="6479" xmlns:xlink="http://www.w3.org/1999/xlink" width="200" height="200"><defs><style type="text/css"></style></defs><path d="M512 341.1h413.7c-9.9-24-21.9-47-35.7-68.7H512v68.7zM512 203.7h324.4c-24.8-26.1-52.7-49.2-83.2-68.7H512v68.7zM958.1 547.3H65.9c1.8 23.5 5.5 46.4 10.8 68.7h870.7c5.2-22.3 8.9-45.3 10.7-68.7zM925 684.7H99c10.1 24 22.1 47 36.1 68.7h753.8c13.9-21.7 26-44.7 36.1-68.7zM512 478.5h446.3c-1.7-23.5-5.3-46.4-10.5-68.7H512v68.7zM834.6 822.1H189.4c25.2 26.2 53.5 49.3 84.3 68.7h476.7c30.8-19.5 59.1-42.6 84.2-68.7z" fill="#FFFFFF" p-id="6480"></path><path d="M512 135h241.2c-59-37.9-127.6-62.2-201.2-68.7h-40V135zM512 272.4h378c-15.6-24.6-33.6-47.7-53.6-68.7H512v68.7zM947.3 616H76.7c5.6 23.7 13.1 46.6 22.4 68.7H925c9.2-22.1 16.7-45.1 22.3-68.7zM888.9 753.4H135.1c15.8 24.7 34 47.7 54.3 68.7h645.3c20.2-21.1 38.4-44.1 54.2-68.7zM512 409.8h435.8c-5.5-23.7-13-46.6-22.1-68.7H512v68.7zM512 547.3h446.1c0.9-11.6 1.4-23.4 1.4-35.3 0-11.3-0.4-22.4-1.2-33.5H512v68.8zM273.7 890.8c69 43.5 150.7 68.7 238.3 68.7s169.3-25.2 238.3-68.7H273.7z" fill="#BF2032" p-id="6481"></path><path d="M512 478.5v-414c-58.3 0-114 11.2-165.1 31.5l1.4 3.7h23.6L352.7 115l6.1 22.5-19.2-13.5-17.5 13.5 6.1-22.5-8.8-7c-67.6 32.3-125.8 81-169.4 140.9h12.1l7-22.5 8.7 22.5h23.6l-19.2 15.3 6.1 22.5-19.2-13.5-17.5 13.5 6.1-22.5-11.9-9.5c-8.7 12.3-16.8 25.1-24.2 38.3l0.7 1.9H146l-19.2 15.3 6.1 22.5-19.2-13.5-8.8 6.8C88.3 362.3 76.4 401.2 70 442h18.5l-19.2 15.3 6.1 22.5-9.2-6.5c-1.1 12.8-1.7 25.7-1.7 38.7 0 11.9 0.5 23.6 1.4 35.3H512v-68.8zM390.1 152.3l7-22.5 8.7 22.5h23.6l-19.2 15.3 6.1 22.5-19.2-13.5-17.5 13.5 6.1-22.5-19.2-15.3h23.6z m26.2 134.3l-19.2-13.5-17.5 13.5 6.1-22.5-19.2-15.3h23.6l7-22.5 8.7 22.5h23.6l-19.2 15.3 6.1 22.5z m0 96.6l-19.2-13.5-17.5 13.5 6.1-22.5-19.2-15.3h23.6l7-22.5 8.7 22.5h23.6l-19.2 15.3 6.1 22.5z m-57.5 46l-19.2-13.5-17.5 13.5 6.1-22.5-19.2-15.2h23.6l7-22.5 8.7 22.5h23.6l-19.2 15.3 6.1 22.4z m-55.4-46l-19.2-13.5-17.5 13.5 6.1-22.5-19.2-15.3h23.6l7-22.5 8.7 22.5h23.6l-19.2 15.3 6.1 22.5z m-57.5 46l-19.2-13.5-17.5 13.5 6.1-22.5-19.2-15.3h23.6l7-22.5 8.7 22.5H259l-19.2 15.3 6.1 22.5z m7.7-180.3h23.6l7-22.5 8.7 22.5h23.6l-19.2 15.3 6.1 22.5-19.2-13.5-17.5 13.5 6.1-22.5-19.2-15.3z m105.2 83.8l-19.2-13.5-17.5 13.5 6.1-22.5-19.2-15.3h23.6l7-22.5 8.7 22.5h23.6l-19.2 15.3 6.1 22.5z m-26.2-134.3l7-22.5 8.7 22.5h23.6l-19.2 15.3 6.1 22.5-19.2-13.5-17.5 13.5 6.1-22.5-19.2-15.3h23.6z m-55.4-46.1l7-22.5 8.7 22.5h23.6l-19.2 15.3 6.1 22.5-19.2-13.5-17.5 13.5 6.1-22.5-19.2-15.3h23.6z m-81.1 46.1h23.6l7-22.5 8.7 22.5H259l-19.2 15.3 6.1 22.5-19.2-13.5-17.5 13.5 6.1-22.5-19.2-15.3z m23.6 96.5l7-22.5 8.7 22.5H259l-19.2 15.3 6.1 22.5-19.2-13.5-17.5 13.5 6.1-22.5-19.2-15.3h23.6z m-57.6 50.5l7-22.5 8.7 22.5h23.6l-19.2 15.3 6.1 22.5-19.2-13.5-17.5 13.5 6.1-22.5-19.2-15.3h23.6z m-78.9 46.1h23.6l7-22.5 8.7 22.5H146l-19.2 15.3 6.1 22.5-19.2-13.5-17.5 13.5 6.1-22.5-19.1-15.3z m49.7 134.3l-19.2-13.5-17.5 13.5 6.1-22.5L83.2 488h23.6l7-22.5 8.7 22.5H146l-19.2 15.3 6.1 22.5z m36.2-59.6l-17.5 13.5 6.1-22.5-19.1-15.2h23.6l7-22.5 8.7 22.5h23.6l-19.2 15.3 6.1 22.5-19.3-13.6z m76.8 59.6l-19.2-13.5-17.5 13.5 6.1-22.5-19.2-15.3h23.6l7-22.5 8.7 22.5H259l-19.2 15.3 6.1 22.5z m38.3-59.6l-17.5 13.5 6.1-22.5-19.2-15.2h23.6l7-22.5 8.7 22.5h23.6l-19.2 15.3 6.1 22.5-19.2-13.6z m74.6 59.6l-19.2-13.5-17.5 13.5 6.1-22.5L309 488h23.6l7-22.5 8.7 22.5h23.6l-19.2 15.3 6.1 22.5z m38.3-59.6l-17.5 13.5 6.1-22.5-19.1-15.2h23.6l7-22.5 8.7 22.5h23.6l-19.2 15.3 6.1 22.5-19.3-13.6z m76.8 59.6l-19.2-13.5-17.5 13.5 6.1-22.5-19.2-15.3h23.6l7-22.5 8.7 22.5H487l-19.2 15.3 6.1 22.5z m-6.1-119l6.1 22.5-19.2-13.5-17.5 13.5 6.1-22.5-19.2-15.3h23.6l7-22.5 8.7 22.5H487l-19.2 15.3z m0-96.6l6.1 22.5-19.2-13.5-17.5 13.5 6.1-22.5-19.2-15.3h23.6l7-22.5 8.7 22.5H487l-19.2 15.3z m0-96.5l6.1 22.5-19.2-13.5-17.5 13.5 6.1-22.5-19.2-15.3h23.6l7-22.5 8.7 22.5H487l-19.2 15.3z m0-98.8l6.1 22.5-19.2-13.5-17.5 13.5 6.1-22.5-19.2-15.3h23.6l7-22.5 8.7 22.5H487l-19.2 15.3z" fill="#212F64" p-id="6482"></path><path d="M463.4 488l-8.7-22.4-7 22.4h-23.6l19.2 15.3-6.1 22.5 17.5-13.5 19.2 13.5-6.1-22.5 19.1-15.3zM348.3 488l-8.7-22.4-7 22.4H309l19.2 15.3-6.1 22.5 17.5-13.5 19.2 13.5-6.1-22.5 19.2-15.3zM235.4 488l-8.8-22.4-6.9 22.4h-23.6l19.2 15.3-6.1 22.5 17.4-13.5 19.3 13.5-6.2-22.5 19.2-15.3zM122.4 488l-8.7-22.4-7 22.4H83.2l19.2 15.3-6.1 22.5 17.4-13.5 19.2 13.5-6.1-22.5L146 488zM454.7 77.2l-7 22.5h-23.6l19.2 15.2-6.1 22.5 17.5-13.5 19.2 13.5-6.1-22.5 19.1-15.2h-23.5zM322.1 137.4l17.5-13.5 19.2 13.5-6.1-22.5 19.2-15.3h-23.6l-1.4-3.7c-9.3 3.7-18.4 7.7-27.4 12l8.8 7-6.2 22.5zM454.7 175.9l-7 22.5h-23.6l19.2 15.3-6.1 22.4 17.5-13.4 19.2 13.4-6.1-22.4 19.1-15.3h-23.5zM328.2 213.7l-6.1 22.4 17.5-13.4 19.2 13.4-6.1-22.4 19.2-15.3h-23.6l-8.7-22.5-7 22.5H309zM209.2 236.1l17.4-13.4 19.3 13.4-6.2-22.4 19.2-15.3h-23.5l-8.8-22.5-6.9 22.5h-23.6l19.2 15.3zM454.7 272.5l-7 22.4h-23.6l19.2 15.3-6.1 22.5 17.5-13.5 19.2 13.5-6.1-22.5 19.1-15.3h-23.5zM348.3 294.9l-8.7-22.4-7 22.4H309l19.2 15.3-6.1 22.5 17.5-13.5 19.2 13.5-6.1-22.5 19.2-15.3zM209.2 332.7l17.4-13.5 19.3 13.5-6.2-22.5 19.2-15.3h-23.5l-8.8-22.4-6.9 22.4h-23.6l19.2 15.3zM132.9 332.7l-6.1-22.5 19.2-15.3h-23.6l-0.7-1.9c-6 10.7-11.7 21.8-16.8 33l8.8-6.8 19.2 13.5zM454.7 369l-7 22.5h-23.6l19.2 15.3-6.1 22.4 17.5-13.4 19.2 13.4-6.1-22.4 19.1-15.3h-23.5zM348.3 391.5l-8.7-22.5-7 22.5H309l19.2 15.3-6.1 22.4 17.5-13.4 19.2 13.4-6.1-22.4 19.2-15.3zM235.4 391.5l-8.8-22.5-6.9 22.5h-23.6l19.2 15.3-6.1 22.4 17.4-13.4 19.3 13.4-6.2-22.4 19.2-15.3zM96.3 429.2l17.4-13.4 19.2 13.4-6.1-22.4 19.2-15.3h-23.6l-8.7-22.5-7 22.5H83.2l19.2 15.3zM429.4 442h-23.6l-8.7-22.5-7 22.5h-23.5l19.2 15.2-6.1 22.5 17.4-13.5 19.2 13.5-6.1-22.5zM316.5 442h-23.6l-8.7-22.5-7 22.5h-23.6l19.2 15.2-6.1 22.5 17.5-13.5 19.2 13.5-6.1-22.5zM201.4 442h-23.6l-8.7-22.5-7 22.5h-23.5l19.2 15.2-6.1 22.5 17.4-13.5 19.2 13.5-6.1-22.5zM69.3 457.2L88.5 442H70c-1.6 10.3-2.9 20.8-3.8 31.3l9.2 6.5-6.1-22.6zM405.8 345.4l-8.7-22.5-7 22.5h-23.5l19.2 15.3-6.1 22.5 17.4-13.5 19.2 13.5-6.1-22.5 19.2-15.3zM292.9 345.4l-8.7-22.5-7 22.5h-23.6l19.2 15.3-6.1 22.5 17.5-13.5 19.2 13.5-6.1-22.5 19.2-15.3zM151.7 383.2l17.4-13.5 19.2 13.5-6.1-22.5 19.2-15.3h-23.6l-8.7-22.5-7 22.5h-23.5l19.2 15.3zM405.8 248.9l-8.7-22.5-7 22.5h-23.5l19.2 15.2-6.1 22.5 17.4-13.5 19.2 13.5-6.1-22.5 19.2-15.2zM284.2 273.1l19.2 13.5-6.1-22.5 19.2-15.2h-23.6l-8.7-22.5-7 22.5h-23.6l19.2 15.2-6.1 22.5zM151.7 286.6l17.5-13.5 19.2 13.5-6.1-22.5 19.2-15.3h-23.6l-8.7-22.5-7 22.5H150c-1.4 1.9-2.8 3.9-4.2 5.8l11.9 9.5-6 22.5zM379.7 190.1l17.4-13.5 19.2 13.5-6.1-22.5 19.2-15.3h-23.6l-8.7-22.5-7 22.5h-23.5l19.2 15.3zM266.7 190.1l17.5-13.5 19.2 13.5-6.1-22.5 19.2-15.3h-23.6l-8.7-22.5-7 22.5h-23.6l19.2 15.3z" fill="#FFFFFF" p-id="6483"></path></svg>