<svg fill="#fff" xmlns="http://www.w3.org/2000/svg" width="20" height="20" viewBox="0 0 20 20">
  <path id="wallet" d="M6.108,19.214A10.033,10.033,0,1,1,10,20,10,10,0,0,1,6.108,19.214ZM1.407,10A8.593,8.593,0,1,0,10,1.407,8.6,8.6,0,0,0,1.407,10Zm4.407,5.233a1.674,1.674,0,0,1-1.665-1.311,1.751,1.751,0,0,1-.042-.39q0-3.549,0-7.1a1.675,1.675,0,0,1,1.7-1.7q3.858,0,7.717,0a.631.631,0,1,1-.006,1.259q-3.813,0-7.625,0c-.328,0-.521.156-.521.42s.195.419.523.419h8.832a1.057,1.057,0,0,1,1.146,1.142c0,.316,0,.63,0,.96-.71,0-1.4,0-2.091,0a2.02,2.02,0,0,0-1.619.758,1.991,1.991,0,0,0-.345,2.091,2.021,2.021,0,0,0,1.672,1.325,2.249,2.249,0,0,0,.34.022c.63,0,1.26,0,1.889,0h.132a11.534,11.534,0,0,1-.009,1.252,1,1,0,0,1-.979.846H5.814Zm8.212-2.94a2.584,2.584,0,0,1-.572-.044,1.252,1.252,0,0,1,.193-2.462c.733-.03,1.467-.007,2.209-.007V12.3h-1Q14.443,12.3,14.026,12.293Z"/>
</svg>
