<?xml version="1.0" encoding="utf-8"?>
<!-- Generator: Adobe Illustrator 26.3.1, SVG Export Plug-In . SVG Version: 6.00 Build 0)  -->
<svg version="1.1" id="圖層_1" xmlns="http://www.w3.org/2000/svg" xmlns:xlink="http://www.w3.org/1999/xlink" x="0px" y="0px"
	 viewBox="0 0 511 133" style="enable-background:new 0 0 511 133;" xml:space="preserve">
<style type="text/css">
	.st0{fill:#737476;}
	.st1{fill:#D48986;}
</style>
<path class="st0" d="M171.5,33.6c0,13.6-5.4,17.1-9.7,19.7c6.7,5.2,10.4,8.8,10.4,24.7c0,9.8-7.6,20.9-25.5,20.9h-20.9
	c-0.6,0-1-0.4-1-1V11.4c0-0.6,0.5-1.2,1.1-1.2c0,0,0,0,0,0h19.9C163,10.2,171.5,20,171.5,33.6z M139.3,23v24.9h5
	c5.2,0,13.3-0.6,13.3-13c0-9.4-7.1-11.9-12-11.9L139.3,23z M139.3,58.4v27.8h7.5c5.3,0,11.7-3.8,11.7-12.5
	c0-12.6-7.1-15.3-13.4-15.3L139.3,58.4z"/>
<path class="st0" d="M216.4,52.2h21.7c0.7,0,1.3,0.6,1.3,1.3c0,0,0,0,0,0v26.2c0,13.2-12,20.1-24.6,20.1c-13.6,0-22.8-8-22.8-22.1
	V31.9c0-14.1,9.1-22.1,22.7-22.1s24.7,7.8,24.7,20.5v7.5c0,0.6-0.4,1-1,1h-12.2c-0.6,0-1-0.4-1-1v-5.1c0-6.3-5-10.9-9.4-10.9
	c-5.4,0.1-9.8,4.5-9.8,9.9v46.9c0,6.3,4.9,9.1,9.3,9.1c5.4-0.3,9.7-4.8,9.7-10.2V64.4h-8.4c-0.7,0-1.3-0.6-1.3-1.3v-9.5
	C215.1,52.8,215.7,52.2,216.4,52.2C216.4,52.2,216.4,52.2,216.4,52.2z"/>
<path class="st0" d="M282.1,9.8c13.5,0,23.4,7.5,23.4,24.7v1.3c0,0.8-0.7,1.5-1.5,1.5h-11.6c-0.6,0-1-0.4-1-1v-2.6
	c0-7.4-4.5-11.6-9-11.6s-9.1,3.4-9.1,9.7c0,3.2,1.3,5.7,3.1,8.2c6.3,8.9,21.9,14.9,27.3,25.5c1.6,3.5,2.4,7.3,2.3,11.2
	c0,14.1-9.7,23.2-23.3,23.2s-22.8-8-22.8-22.1v-3.9c0-0.8,0.7-1.5,1.5-1.5h10.9c0.8,0,1.4,0.6,1.4,1.4c0,0,0,0,0,0v3.4
	c0,6.3,4.6,10.2,9,10.2s9-2.4,9-8.7c0.1-2.2-0.3-4.5-1-6.6c-5.8-13.2-31.2-16.3-31.2-40C259.4,17.9,268.7,9.8,282.1,9.8z"/>
<path class="st0" d="M325.9,33.8c0-14.1,8.5-24,24.2-24s24.2,9.9,24.2,24v42c0,14.1-8.5,24-24.2,24s-24.2-9.9-24.2-24V33.8z
	 M340.3,77.1c0,6.3,3.8,10.1,9.7,10.1s9.7-3.8,9.7-10.1V32.5c0-6.3-3.8-10.1-9.7-10.1s-9.7,3.9-9.7,10.1V77.1z"/>
<path class="st0" d="M411.3,48.5H428c0.7,0,1.3,0.6,1.3,1.3v9.8c0,0.7-0.6,1.4-1.3,1.4c0,0,0,0,0,0h-16.7v36.9
	c0,0.7-0.6,1.3-1.3,1.3h-11.9c-0.7,0-1.3-0.6-1.3-1.3V11.7c0-0.7,0.6-1.3,1.3-1.3c0,0,0,0,0,0h41.2c0.7,0,1.3,0.6,1.3,1.3v9.8
	c0,0.7-0.6,1.3-1.3,1.3h-28.1V48.5z"/>
<path class="st0" d="M457.4,10.4h47.5c0.7,0,1.3,0.6,1.3,1.3v10.2c0,0.7-0.6,1.3-1.3,1.3h-17v74.8c0,0.7-0.6,1.3-1.3,1.3l0,0h-12
	c-0.7,0-1.3-0.6-1.3-1.3v0V23.1h-16c-0.7,0-1.3-0.6-1.3-1.3c0,0,0,0,0,0V11.7C456,11,456.6,10.4,457.4,10.4
	C457.3,10.4,457.4,10.4,457.4,10.4z"/>
<path class="st0" d="M123.8,106.4h4.5c1.9,0,3,0.1,4.1,0.7c1.2,0.6,1.9,1.8,1.9,3.1c0,1.5-1.1,2.9-2.5,3.3v0.1
	c1.8,0.4,3.1,2,3.1,3.8c0,1.3-0.6,2.5-1.6,3.3c-1.1,0.9-3.2,1.3-5.7,1.3h-3.8L123.8,106.4z M126.8,112.5h1.3c1.9,0,2.9-0.8,2.9-1.9
	s-1-1.8-2.6-1.8c-0.5,0-1.1,0-1.6,0.1V112.5z M126.8,119.3c0.5,0.1,1,0.1,1.6,0.1c1.6,0,3.3-0.6,3.3-2.2s-1.7-2.1-3.5-2.1h-1.4
	L126.8,119.3z"/>
<path class="st0" d="M137.7,106.3h3.5v12.6h5.8v2.9h-9.3L137.7,106.3z"/>
<path class="st0" d="M425.8,106.3h3.5v12.6h5.5v2.9h-9L425.8,106.3z"/>
<path class="st0" d="M163.4,113.9c0,5.1-3.1,8.2-7.6,8.2s-7.3-3.5-7.3-7.9c0-4.6,3-8.1,7.6-8.1C160.9,106.1,163.4,109.6,163.4,113.9
	z M151.9,114.1c0,3,1.6,5.2,4.1,5.2s4-2.2,4-5.2c0-2.8-1.4-5.2-4-5.2S151.9,111.1,151.9,114.1z"/>
<path class="st0" d="M362.8,113.9c0,5.1-3.1,8.2-7.6,8.2s-7.3-3.5-7.3-7.9c0-4.6,3-8.1,7.5-8.1C360.1,106.1,362.8,109.6,362.8,113.9
	z M351.2,114.1c0,3,1.5,5.2,4.1,5.2s4-2.2,4-5.2c0-2.8-1.4-5.2-4-5.2S351.2,111.1,351.2,114.1z"/>
<path class="st0" d="M423.1,113.9c0,5.1-3.1,8.2-7.6,8.2s-7.3-3.5-7.3-7.9c0-4.6,3-8.1,7.5-8.1C420.5,106.1,423.1,109.6,423.1,113.9
	z M411.6,114.1c0,3,1.5,5.2,4.1,5.2s4-2.2,4-5.2c0-2.8-1.4-5.2-4-5.2S411.6,111.1,411.6,114.1z"/>
<path class="st0" d="M487.4,113.9c0,5.1-3.1,8.2-7.6,8.2s-7.3-3.5-7.3-7.9c0-4.6,3-8.1,7.5-8.1C484.8,106.1,487.4,109.6,487.4,113.9
	z M475.9,114.1c0,3,1.6,5.2,4.1,5.2s4-2.2,4-5.2c0-2.8-1.4-5.2-4.1-5.2S475.9,111.1,475.9,114.1L475.9,114.1z"/>
<path class="st0" d="M177.2,121.4c-1.2,0.5-2.5,0.7-3.8,0.7c-5.4,0-8.1-3.3-8.1-7.8c0-5.3,3.8-8.2,8.5-8.2c1.2-0.1,2.4,0.2,3.4,0.7
	v2.8c-1-0.4-2.1-0.6-3.3-0.6c-2.8-0.1-5.2,2.1-5.3,4.9c-0.1,2.8,2.1,5.2,4.9,5.3c0.2,0,0.3,0,0.5,0c1.1-0.1,2.2-0.3,3.2-0.8
	L177.2,121.4z"/>
<path class="st0" d="M205.5,121.4c-1.2,0.5-2.5,0.7-3.8,0.7c-5.4,0-8.1-3.3-8.1-7.8c0-5.3,3.8-8.2,8.5-8.2c1.2-0.1,2.4,0.2,3.4,0.7
	v2.8c-1-0.4-2.1-0.6-3.3-0.6c-2.8-0.1-5.2,2.1-5.3,4.9c-0.1,2.8,2.1,5.2,4.9,5.3c0.2,0,0.3,0,0.5,0c1.1-0.1,2.2-0.3,3.2-0.8
	L205.5,121.4z"/>
<path class="st0" d="M180.1,106.3l3.1-0.1v7.3l5.2-7.3h3.7l-5.6,7.2l5.9,8.3h-4.1l-3.8-6.7l-1.3-0.1v6.8l-3.1,0.1V106.3z"/>
<path class="st0" d="M211.9,106.3v6h6.3v-6h3.5v15.5h-3.5v-6.5h-6.3v6.5h-3.5v-15.5H211.9z"/>
<path class="st0" d="M228.9,117.8l-1.1,4h-3.6l4.7-15.5h4.6l4.8,15.5h-3.8l-1.2-4H228.9z M232.8,115.2l-1-3.3
	c-0.3-0.9-0.5-2.1-0.8-3H231c-0.2,0.9-0.5,2.1-0.7,3l-0.9,3.3H232.8z"/>
<path class="st0" d="M291.3,117.8l-1.1,4h-3.6l4.7-15.5h4.6l4.8,15.5H297l-1.2-4H291.3z M295.3,115.2l-1-3.3c-0.3-0.9-0.5-2.1-0.8-3
	l0,0c-0.2,0.9-0.5,2.1-0.7,3l-0.9,3.3H295.3z"/>
<path class="st0" d="M244.4,106.3v15.5h-3.5v-15.5H244.4z"/>
<path class="st0" d="M248,121.8v-15.5h3.8l6.8,11v-11h3v15.5H258l-6.9-11v11L248,121.8z"/>
<path class="st0" d="M469.9,106.3v15.5h-3.5v-15.5H469.9z"/>
<path class="st0" d="M490.2,121.8v-15.5h3.8l6.8,11v-11h3v15.5h-3.6l-6.9-11v11L490.2,121.8z"/>
<path class="st0" d="M284.4,121.1c-1.7,0.6-3.4,0.9-5.2,0.9c-2.8,0-4.9-0.7-6.3-2.1c-1.5-1.5-2.3-3.5-2.2-5.6c0-5.2,3.8-8.1,8.8-8.1
	c1.4-0.1,2.7,0.2,3.9,0.7v2.8c-1.3-0.5-2.6-0.7-4-0.7c-2.9,0-5.1,1.7-5.1,5c0,3.2,2,5.1,4.9,5.1c0.6,0,1.2,0,1.7-0.2v-2.8h-2.9v-2.7
	h6.2L284.4,121.1z"/>
<path class="st0" d="M317.3,110.3l-4.2,11.2h-2.7l-4.4-11.2v11.5h-3v-15.5h5.1l3.9,11.2l3.9-11.2h4.7v15.5h-3.2L317.3,110.3z"/>
<path class="st0" d="M332.7,115.3h-5v3.7h5.8v2.9h-9.3v-15.5h8.9v2.9h-5.4v3.2h5L332.7,115.3z"/>
<path class="st0" d="M335.7,118.3c1.6,0.6,3.3,1,5,1.1c1.6,0,2.1-0.7,2.1-1.7s-1.3-1.9-3.1-2.5c-2.6-0.9-4-2.2-4-4.4
	c0-2.6,2.4-4.7,6-4.7c1.2,0,2.5,0.2,3.6,0.8v2.8c-1.1-0.5-2.4-0.7-3.6-0.7c-1.5,0-2.5,0.8-2.5,1.6c0,1.4,1.3,1.7,3.3,2.4
	c2.7,1,3.7,2.7,3.7,4.7c0,2.6-1.5,4.5-5.3,4.5c-1.7,0-3.5-0.3-5.1-0.9L335.7,118.3z"/>
<path class="st0" d="M395.6,118.3c1.6,0.6,3.3,1,5,1.1c1.6,0,2.1-0.7,2.1-1.7s-1.3-1.9-3.1-2.5c-2.6-0.9-4-2.2-4-4.4
	c0-2.6,2.4-4.7,6-4.7c1.2,0,2.5,0.2,3.6,0.8v2.8c-1.1-0.5-2.4-0.7-3.6-0.7c-1.5,0-2.5,0.8-2.5,1.6c0,1.4,1.3,1.7,3.3,2.4
	c2.8,1,3.7,2.7,3.7,4.7c0,2.6-1.5,4.5-5.3,4.5c-1.7,0-3.5-0.3-5.1-0.9L395.6,118.3z"/>
<path class="st0" d="M365.5,106.3h8.9v2.9h-5.6v3.6h5.3v2.8h-5.3v6.2h-3.2L365.5,106.3z"/>
<path class="st0" d="M380,109.3h-4.2v-2.9h11.9v2.9h-4.2v12.6H380V109.3z"/>
<path class="st0" d="M456,109.3h-4.2v-2.9h11.9v2.9h-4.2v12.6H456V109.3z"/>
<path class="st0" d="M440.5,106.3v9.3c0,2.7,1,3.8,2.8,3.8s2.9-1.1,2.9-3.8v-9.3h3.5v8.7c0,4.8-2.4,7-6.5,7c-3.9,0-6.2-2.2-6.2-7.1
	v-8.7L440.5,106.3z"/>
<g id="a6fdeb2c-6130-4766-9016-4dc684784273">
	<g id="b8968136-5c71-404d-b585-d2d26e622e08">
		<path class="st1" d="M103.3,59.1L103.3,59.1v-0.2l0,0l-8.9-39.6c0-0.1-0.1-0.2-0.1-0.2l0,0c0,0,0,0-0.1,0c0,0-0.1-0.1-0.1-0.1l0,0
			L71,4.6c-0.1,0-0.2-0.1-0.2-0.1h-0.4c-0.1,0-0.2,0.1-0.2,0.2l-14.6,14h-25c-0.2,0-0.5,0.1-0.6,0.3l-31,54.2l0,0v0.1l0,0l0,0h-0.1
			v0.2l0,0L6.7,114c0,0.2,0.2,0.4,0.3,0.4l0,0l23.2,13.9l0,0c0.1,0.1,0.2,0.1,0.3,0.1h0.1c0.2,0,0.4-0.1,0.5-0.2l12.1-13.8l27.1-0.2
			h0.2h0.1h0.1l0.1-0.1h0.1l0.1-0.2l32.4-54.7l0,0c0,0,0-0.1,0-0.1v-0.1L103.3,59.1z M53.2,103.2l46.6-40.9L70,112.7L53.2,103.2z
			 M70.5,6.3l7.4,12.4H57.6L70.5,6.3z M93.3,20.5l7.7,34.3L83.8,26L93.3,20.5z M83.1,24.8l-2.8-4.6h10.8L83.1,24.8z M101.6,58.4
			l-14.9,2.1L3,72.4l79.6-45.7L101.6,58.4z M79.6,18.7L72.7,7.3l18.7,11.4L79.6,18.7z M78.8,20.1l3.2,5.3L4.1,70.2l52.1-50.1
			L78.8,20.1z M1.6,74l49.6-7l49.2-7l-48.5,42.5L1.6,74z M50.9,103.5l-8.4,9.6L23,113.2L1.4,75.4L50.9,103.5z M30.9,20.1h23.2
			L2.5,69.7L30.9,20.1z M1,77.6l20.4,35.7L8,113.3L1,77.6z M22.2,114.6l6.4,11.2L9.9,114.7L22.2,114.6z M30.6,126.6l-6.8-12
			l17.5-0.1L30.6,126.6z M52.2,104.3l15.5,8.7l-23.3,0.1L52.2,104.3z"/>
	</g>
</g>
</svg>
