<?xml version="1.0" encoding="utf-8"?>
<!-- Generator: Adobe Illustrator 25.4.1, SVG Export Plug-In . SVG Version: 6.00 Build 0)  -->
<svg fill="#d48986" version="1.1" id="Layer_1" xmlns="http://www.w3.org/2000/svg" xmlns:xlink="http://www.w3.org/1999/xlink" x="0px" y="0px"
	 viewBox="0 0 200 200" style="enable-background:new 0 0 200 200;" xml:space="preserve">
<g id="Group_169" transform="translate(-2744.047 -811.927)">
	<path id="Path_123" d="M2744.84,911.6c0.18-54.79,44.74-99.06,99.54-98.88c54.79,0.18,99.06,44.74,98.88,99.54
		c-0.18,54.79-44.74,99.06-99.54,98.88c-1.24,0-2.49-0.03-3.73-0.08C2786.67,1008.94,2744.59,964.97,2744.84,911.6z M2915.22,960
		c26.68-39.23,16.51-92.66-22.72-119.34c-39.23-26.68-92.66-16.51-119.34,22.72c-19.81,29.13-19.83,67.4-0.05,96.55
		c38.62-39.22,101.73-39.71,140.95-1.09C2914.45,959.22,2914.84,959.61,2915.22,960z" />
	<path id="Path_124" d="M2883.83,878.91c-0.06,21.92-17.88,39.65-39.81,39.59c-21.93-0.06-39.65-17.88-39.59-39.81
		c0.06-21.92,17.88-39.65,39.81-39.59c0.09,0,0.18,0,0.27,0C2866.32,839.33,2883.87,857.1,2883.83,878.91z" />
</g>
</svg>
